<mxfile host="app.diagrams.net" agent="Mozilla/5.0 (X11; Linux x86_64) AppleWebKit/537.36 (KHTML, like Gecko) Chrome/126.0.0.0 Safari/537.36" version="24.7.10">
  <diagram id="C5RBs43oDa-KdzZeNtuy" name="Page-1">
    <mxGraphModel dx="1434" dy="1962" grid="1" gridSize="10" guides="1" tooltips="1" connect="1" arrows="1" fold="1" page="1" pageScale="1" pageWidth="827" pageHeight="1169" math="0" shadow="0">
      <root>
        <mxCell id="WIyWlLk6GJQsqaUBKTNV-0" />
        <mxCell id="WIyWlLk6GJQsqaUBKTNV-1" parent="WIyWlLk6GJQsqaUBKTNV-0" />
        <mxCell id="YHFM3lTIvCMg3ZESh84S-0" value="&lt;p style=&quot;box-sizing: border-box; font-family: &amp;quot;Exo 2&amp;quot;, Barlow; margin: 0px 0px 0.5em; color: rgb(0, 26, 30); font-size: 14px; text-align: left; background-color: rgb(231, 243, 245);&quot;&gt;Suponha que um sistema deva ter uma&amp;nbsp;&lt;span style=&quot;box-sizing: border-box; font-weight: bolder;&quot;&gt;classe Imovel&lt;/span&gt;,&amp;nbsp;com atributos&amp;nbsp; valorM2 (valor do metro quadrado), area (quantidade de metros quadrados do imóvel), bairro e um método getImposto(), que calcula e retorna o IPTU (imposto sobre o imóvel), que é 5% do seu valor. Para calcular o valor do imóvel,&amp;nbsp; multiplique a area pelo valorM2.&lt;/p&gt;&lt;p style=&quot;box-sizing: border-box; font-family: &amp;quot;Exo 2&amp;quot;, Barlow; margin: 0px 0px 0.5em; color: rgb(0, 26, 30); font-size: 14px; text-align: left; background-color: rgb(231, 243, 245);&quot;&gt;Nesse mesmo sistema, deve ter uma&lt;span style=&quot;box-sizing: border-box; font-weight: bolder;&quot;&gt;&amp;nbsp;classe TrabalhadorAssalariado&lt;/span&gt;, com atributos cpf, nome, salario, valorHoraExtra, qtdHoraExtra, um método getRenda() e um método getImposto(), que calcula e retorna o valor do imposto de renda desse trabalhador, que é 12% sobre a sua renda. Para calcular o valor da renda desse trabalhador, é o salário mais (valorHoraExtra multiplicado pela quantidade de hora extra).&lt;/p&gt;&lt;p style=&quot;box-sizing: border-box; font-family: &amp;quot;Exo 2&amp;quot;, Barlow; margin: 0px 0px 0.5em; color: rgb(0, 26, 30); font-size: 14px; background-color: rgb(231, 243, 245);&quot; align=&quot;left&quot;&gt;&lt;/p&gt;&lt;p style=&quot;box-sizing: border-box; font-family: &amp;quot;Exo 2&amp;quot;, Barlow; margin: 0px 0px 0.5em; color: rgb(0, 26, 30); font-size: 14px; text-align: left; background-color: rgb(231, 243, 245);&quot;&gt;Nesse mesmo sistema, deve ter uma&amp;nbsp;&lt;span style=&quot;box-sizing: border-box; font-weight: bolder;&quot;&gt;classe TrabalhadorEmpresario&lt;/span&gt;, com atributos cpf, nome, salario, valorParticipacaoLucro, um método getRenda() e um método getImposto(), que calcula e retorna o valor do imposto de renda desse trabalhador, que é 25% sobre a sua renda. Para calcular o valor da renda desse trabalhador, é o salário mais o valor de participação do lucro.&lt;/p&gt;&lt;p style=&quot;box-sizing: border-box; font-family: &amp;quot;Exo 2&amp;quot;, Barlow; margin: 0px 0px 0.5em; color: rgb(0, 26, 30); font-size: 14px; background-color: rgb(231, 243, 245);&quot; align=&quot;left&quot;&gt;Neste sistema, também há uma&amp;nbsp;&lt;span style=&quot;box-sizing: border-box; font-weight: bolder;&quot;&gt;classe ControleTributo&lt;/span&gt;, que controla quanto uma família está gastando em imposto, considerando os trabalhadores da família e os seus imóveis. Essa classe disponibiliza um método que retorna o total gasto em imposto com todas as pessoas da família que trabalham e imóveis. Para fazer esse cálculo, essa classe deseja manter em List os objetos correspondentes a trabalhadores e imóveis.&lt;span style=&quot;box-sizing: border-box; font-weight: bolder;&quot;&gt;&amp;nbsp;(obs: não é necessário ter uma classe Familia)&lt;/span&gt;&lt;br style=&quot;box-sizing: border-box;&quot;&gt;&lt;/p&gt;&lt;p style=&quot;box-sizing: border-box; font-family: &amp;quot;Exo 2&amp;quot;, Barlow; margin: 0px 0px 0.5em; color: rgb(0, 26, 30); font-size: 14px; background-color: rgb(231, 243, 245);&quot; align=&quot;left&quot;&gt;&lt;span style=&quot;box-sizing: border-box; font-weight: bolder;&quot;&gt;&lt;/span&gt;&lt;/p&gt;&lt;p style=&quot;box-sizing: border-box; font-family: &amp;quot;Exo 2&amp;quot;, Barlow; margin: 0px 0px 0.5em; color: rgb(0, 26, 30); font-size: 14px; text-align: left; background-color: rgb(231, 243, 245);&quot;&gt;&lt;span style=&quot;box-sizing: border-box; font-weight: bolder;&quot;&gt;Pela descrição acima, as classes TrabalhadorAssalariado, TrabalhadorEmpresario e Imovel apresentam um método de mesmo nome. Com base no que estudamos, qual a melhor forma de “forçar” que essas classes implementem o método getImposto() ? Interface ou classe abstrata? Não precisa escrever essa resposta.&lt;/span&gt;&lt;span style=&quot;box-sizing: border-box; font-weight: bolder;&quot;&gt;&lt;br style=&quot;box-sizing: border-box;&quot;&gt;&lt;/span&gt;&lt;/p&gt;&lt;p style=&quot;box-sizing: border-box; font-family: &amp;quot;Exo 2&amp;quot;, Barlow; margin: 0px 0px 0.5em; color: rgb(0, 26, 30); font-size: 14px; background-color: rgb(231, 243, 245);&quot; align=&quot;left&quot;&gt;&lt;span style=&quot;box-sizing: border-box; font-weight: bolder;&quot;&gt;&lt;/span&gt;&lt;/p&gt;&lt;p style=&quot;box-sizing: border-box; font-family: &amp;quot;Exo 2&amp;quot;, Barlow; margin: 0px 0px 0.5em; color: rgb(0, 26, 30); font-size: 14px; text-align: left; background-color: rgb(231, 243, 245);&quot;&gt;&lt;span style=&quot;box-sizing: border-box; font-weight: bolder;&quot;&gt;&lt;span style=&quot;box-sizing: border-box; font-weight: bolder;&quot;&gt;As classes TrabalhadorAssalariado e TrabalhadorEmpresario apresentam um método getRenda(). Qual a melhor forma de &quot;forçar&quot; que essas 2 classes implementem o método getRenda()? Interface ou classe abstrata?&lt;/span&gt;&lt;/span&gt;&lt;/p&gt;&lt;p style=&quot;box-sizing: border-box; font-family: &amp;quot;Exo 2&amp;quot;, Barlow; margin: 0px 0px 0.5em; color: rgb(0, 26, 30); font-size: 14px; text-align: left; background-color: rgb(231, 243, 245);&quot;&gt;&lt;span style=&quot;box-sizing: border-box; font-weight: bolder;&quot;&gt;Implemente a sua solução de acordo com a sua resposta e também de forma que demonstre a reutilização de código, grande vantagem da POO.&lt;/span&gt;&lt;br style=&quot;box-sizing: border-box;&quot;&gt;&lt;/p&gt;&lt;p style=&quot;box-sizing: border-box; font-family: &amp;quot;Exo 2&amp;quot;, Barlow; margin: 0px 0px 0.5em; color: rgb(0, 26, 30); font-size: 14px; text-align: left; background-color: rgb(231, 243, 245);&quot;&gt;&lt;/p&gt;&lt;p style=&quot;box-sizing: border-box; font-family: &amp;quot;Exo 2&amp;quot;, Barlow; margin: 0px 0px 0.5em; color: rgb(0, 26, 30); font-size: 14px; background-color: rgb(231, 243, 245);&quot; align=&quot;left&quot;&gt;Você deverá implementar as classes descritas acima com os atributos, o construtor, e o toString(), sendo que o toString() deve retornar também o valor do imposto.&lt;br style=&quot;box-sizing: border-box;&quot;&gt;&lt;/p&gt;&lt;p style=&quot;box-sizing: border-box; font-family: &amp;quot;Exo 2&amp;quot;, Barlow; margin: 0px 0px 0.5em; color: rgb(0, 26, 30); font-size: 14px; background-color: rgb(231, 243, 245);&quot; align=&quot;left&quot;&gt;Implemente também a classe abstrata e/ou interface que julgar necessário.&lt;br style=&quot;box-sizing: border-box;&quot;&gt;&lt;/p&gt;&lt;p style=&quot;box-sizing: border-box; font-family: &amp;quot;Exo 2&amp;quot;, Barlow; margin: 0px 0px 0.5em; color: rgb(0, 26, 30); font-size: 14px; text-align: left; background-color: rgb(231, 243, 245);&quot;&gt;&lt;/p&gt;&lt;p style=&quot;box-sizing: border-box; margin: 0px 0px 0.5em;&quot; align=&quot;left&quot;&gt;&lt;/p&gt;&lt;p&gt;&lt;/p&gt;&lt;p style=&quot;box-sizing: border-box; font-family: &amp;quot;Exo 2&amp;quot;, Barlow; margin: 0px 0px 0.5em; color: rgb(0, 26, 30); font-size: 14px; font-style: normal; font-variant-ligatures: normal; font-variant-caps: normal; font-weight: 400; letter-spacing: normal; orphans: 2; text-indent: 0px; text-transform: none; widows: 2; word-spacing: 0px; -webkit-text-stroke-width: 0px; white-space: normal; background-color: rgb(231, 243, 245); text-decoration-thickness: initial; text-decoration-style: initial; text-decoration-color: initial;&quot; align=&quot;left&quot;&gt;Não se esqueça de implementar a classe ControleTributo, com os atributos que julgar necessário e com os métodos listados abaixo.&lt;br style=&quot;box-sizing: border-box; font-family: &amp;quot;Exo 2&amp;quot;, Barlow;&quot;&gt;&lt;/p&gt;&lt;p style=&quot;box-sizing: border-box; font-family: &amp;quot;Exo 2&amp;quot;, Barlow; margin: 0px 0px 0.5em; color: rgb(0, 26, 30); font-size: 14px; background-color: rgb(231, 243, 245);&quot; align=&quot;left&quot;&gt;&lt;/p&gt;" style="text;html=1;align=center;verticalAlign=middle;whiteSpace=wrap;rounded=0;" vertex="1" parent="WIyWlLk6GJQsqaUBKTNV-1">
          <mxGeometry x="720" y="130" width="1090" height="30" as="geometry" />
        </mxCell>
        <mxCell id="YHFM3lTIvCMg3ZESh84S-46" style="edgeStyle=orthogonalEdgeStyle;rounded=0;orthogonalLoop=1;jettySize=auto;html=1;endArrow=block;endFill=0;endSize=11;dashed=1;dashPattern=8 8;" edge="1" parent="WIyWlLk6GJQsqaUBKTNV-1" source="YHFM3lTIvCMg3ZESh84S-10" target="YHFM3lTIvCMg3ZESh84S-39">
          <mxGeometry relative="1" as="geometry">
            <Array as="points">
              <mxPoint x="1230" y="410" />
              <mxPoint x="1360" y="410" />
              <mxPoint x="1360" y="480" />
            </Array>
          </mxGeometry>
        </mxCell>
        <mxCell id="YHFM3lTIvCMg3ZESh84S-54" style="edgeStyle=orthogonalEdgeStyle;rounded=0;orthogonalLoop=1;jettySize=auto;html=1;endArrow=diamondThin;endFill=0;endSize=13;" edge="1" parent="WIyWlLk6GJQsqaUBKTNV-1" source="YHFM3lTIvCMg3ZESh84S-10" target="YHFM3lTIvCMg3ZESh84S-47">
          <mxGeometry relative="1" as="geometry" />
        </mxCell>
        <mxCell id="YHFM3lTIvCMg3ZESh84S-10" value="&lt;&lt; Abstract &gt;&gt;&#xa;Trabalhador" style="swimlane;fontStyle=2;align=center;verticalAlign=top;childLayout=stackLayout;horizontal=1;startSize=40;horizontalStack=0;resizeParent=1;resizeLast=0;collapsible=1;marginBottom=0;rounded=0;shadow=0;strokeWidth=1;" vertex="1" parent="WIyWlLk6GJQsqaUBKTNV-1">
          <mxGeometry x="1150" y="460" width="160" height="152" as="geometry">
            <mxRectangle x="550" y="140" width="160" height="26" as="alternateBounds" />
          </mxGeometry>
        </mxCell>
        <mxCell id="YHFM3lTIvCMg3ZESh84S-11" value="- cpf: String" style="text;align=left;verticalAlign=top;spacingLeft=4;spacingRight=4;overflow=hidden;rotatable=0;points=[[0,0.5],[1,0.5]];portConstraint=eastwest;" vertex="1" parent="YHFM3lTIvCMg3ZESh84S-10">
          <mxGeometry y="40" width="160" height="26" as="geometry" />
        </mxCell>
        <mxCell id="YHFM3lTIvCMg3ZESh84S-19" value="- nome: String" style="text;align=left;verticalAlign=top;spacingLeft=4;spacingRight=4;overflow=hidden;rotatable=0;points=[[0,0.5],[1,0.5]];portConstraint=eastwest;rounded=0;shadow=0;html=0;" vertex="1" parent="YHFM3lTIvCMg3ZESh84S-10">
          <mxGeometry y="66" width="160" height="26" as="geometry" />
        </mxCell>
        <mxCell id="YHFM3lTIvCMg3ZESh84S-12" value="- salario: Double" style="text;align=left;verticalAlign=top;spacingLeft=4;spacingRight=4;overflow=hidden;rotatable=0;points=[[0,0.5],[1,0.5]];portConstraint=eastwest;rounded=0;shadow=0;html=0;" vertex="1" parent="YHFM3lTIvCMg3ZESh84S-10">
          <mxGeometry y="92" width="160" height="26" as="geometry" />
        </mxCell>
        <mxCell id="YHFM3lTIvCMg3ZESh84S-16" value="" style="line;html=1;strokeWidth=1;align=left;verticalAlign=middle;spacingTop=-1;spacingLeft=3;spacingRight=3;rotatable=0;labelPosition=right;points=[];portConstraint=eastwest;" vertex="1" parent="YHFM3lTIvCMg3ZESh84S-10">
          <mxGeometry y="118" width="160" height="8" as="geometry" />
        </mxCell>
        <mxCell id="YHFM3lTIvCMg3ZESh84S-17" value="+ getRenda(): Double" style="text;align=left;verticalAlign=top;spacingLeft=4;spacingRight=4;overflow=hidden;rotatable=0;points=[[0,0.5],[1,0.5]];portConstraint=eastwest;fontStyle=2" vertex="1" parent="YHFM3lTIvCMg3ZESh84S-10">
          <mxGeometry y="126" width="160" height="26" as="geometry" />
        </mxCell>
        <mxCell id="YHFM3lTIvCMg3ZESh84S-20" value="TrabalhadorAssalariado" style="swimlane;fontStyle=0;align=center;verticalAlign=top;childLayout=stackLayout;horizontal=1;startSize=26;horizontalStack=0;resizeParent=1;resizeLast=0;collapsible=1;marginBottom=0;rounded=0;shadow=0;strokeWidth=1;" vertex="1" parent="WIyWlLk6GJQsqaUBKTNV-1">
          <mxGeometry x="990" y="690" width="160" height="110" as="geometry">
            <mxRectangle x="550" y="140" width="160" height="26" as="alternateBounds" />
          </mxGeometry>
        </mxCell>
        <mxCell id="YHFM3lTIvCMg3ZESh84S-24" value="- valorHoraExtra: Double" style="text;align=left;verticalAlign=top;spacingLeft=4;spacingRight=4;overflow=hidden;rotatable=0;points=[[0,0.5],[1,0.5]];portConstraint=eastwest;rounded=0;shadow=0;html=0;" vertex="1" parent="YHFM3lTIvCMg3ZESh84S-20">
          <mxGeometry y="26" width="160" height="26" as="geometry" />
        </mxCell>
        <mxCell id="YHFM3lTIvCMg3ZESh84S-25" value="- qtdHoraExtra: Int" style="text;align=left;verticalAlign=top;spacingLeft=4;spacingRight=4;overflow=hidden;rotatable=0;points=[[0,0.5],[1,0.5]];portConstraint=eastwest;rounded=0;shadow=0;html=0;" vertex="1" parent="YHFM3lTIvCMg3ZESh84S-20">
          <mxGeometry y="52" width="160" height="26" as="geometry" />
        </mxCell>
        <mxCell id="YHFM3lTIvCMg3ZESh84S-26" value="" style="line;html=1;strokeWidth=1;align=left;verticalAlign=middle;spacingTop=-1;spacingLeft=3;spacingRight=3;rotatable=0;labelPosition=right;points=[];portConstraint=eastwest;" vertex="1" parent="YHFM3lTIvCMg3ZESh84S-20">
          <mxGeometry y="78" width="160" height="8" as="geometry" />
        </mxCell>
        <mxCell id="YHFM3lTIvCMg3ZESh84S-33" style="edgeStyle=orthogonalEdgeStyle;rounded=0;orthogonalLoop=1;jettySize=auto;html=1;endArrow=block;endFill=0;endSize=11;" edge="1" parent="WIyWlLk6GJQsqaUBKTNV-1" source="YHFM3lTIvCMg3ZESh84S-29" target="YHFM3lTIvCMg3ZESh84S-10">
          <mxGeometry relative="1" as="geometry">
            <Array as="points">
              <mxPoint x="1380" y="670" />
              <mxPoint x="1229" y="670" />
            </Array>
          </mxGeometry>
        </mxCell>
        <mxCell id="YHFM3lTIvCMg3ZESh84S-29" value="TrabalhadorEmpresario" style="swimlane;fontStyle=0;align=center;verticalAlign=top;childLayout=stackLayout;horizontal=1;startSize=26;horizontalStack=0;resizeParent=1;resizeLast=0;collapsible=1;marginBottom=0;rounded=0;shadow=0;strokeWidth=1;" vertex="1" parent="WIyWlLk6GJQsqaUBKTNV-1">
          <mxGeometry x="1280" y="710" width="200" height="80" as="geometry">
            <mxRectangle x="550" y="140" width="160" height="26" as="alternateBounds" />
          </mxGeometry>
        </mxCell>
        <mxCell id="YHFM3lTIvCMg3ZESh84S-30" value="- valorParticipacaoLucro: Double" style="text;align=left;verticalAlign=top;spacingLeft=4;spacingRight=4;overflow=hidden;rotatable=0;points=[[0,0.5],[1,0.5]];portConstraint=eastwest;rounded=0;shadow=0;html=0;" vertex="1" parent="YHFM3lTIvCMg3ZESh84S-29">
          <mxGeometry y="26" width="200" height="26" as="geometry" />
        </mxCell>
        <mxCell id="YHFM3lTIvCMg3ZESh84S-32" value="" style="line;html=1;strokeWidth=1;align=left;verticalAlign=middle;spacingTop=-1;spacingLeft=3;spacingRight=3;rotatable=0;labelPosition=right;points=[];portConstraint=eastwest;" vertex="1" parent="YHFM3lTIvCMg3ZESh84S-29">
          <mxGeometry y="52" width="200" height="8" as="geometry" />
        </mxCell>
        <mxCell id="YHFM3lTIvCMg3ZESh84S-34" value="" style="endArrow=none;html=1;rounded=0;exitX=0.5;exitY=0;exitDx=0;exitDy=0;" edge="1" parent="WIyWlLk6GJQsqaUBKTNV-1" source="YHFM3lTIvCMg3ZESh84S-20">
          <mxGeometry width="50" height="50" relative="1" as="geometry">
            <mxPoint x="1290" y="680" as="sourcePoint" />
            <mxPoint x="1230" y="670" as="targetPoint" />
            <Array as="points">
              <mxPoint x="1070" y="670" />
            </Array>
          </mxGeometry>
        </mxCell>
        <mxCell id="YHFM3lTIvCMg3ZESh84S-35" value="ControleImposto" style="swimlane;fontStyle=0;align=center;verticalAlign=top;childLayout=stackLayout;horizontal=1;startSize=26;horizontalStack=0;resizeParent=1;resizeLast=0;collapsible=1;marginBottom=0;rounded=0;shadow=0;strokeWidth=1;" vertex="1" parent="WIyWlLk6GJQsqaUBKTNV-1">
          <mxGeometry x="750" y="380" width="330" height="138" as="geometry">
            <mxRectangle x="550" y="140" width="160" height="26" as="alternateBounds" />
          </mxGeometry>
        </mxCell>
        <mxCell id="YHFM3lTIvCMg3ZESh84S-36" value="- familia: List&lt;IImposto&gt;" style="text;align=left;verticalAlign=top;spacingLeft=4;spacingRight=4;overflow=hidden;rotatable=0;points=[[0,0.5],[1,0.5]];portConstraint=eastwest;rounded=0;shadow=0;html=0;fontStyle=0" vertex="1" parent="YHFM3lTIvCMg3ZESh84S-35">
          <mxGeometry y="26" width="330" height="26" as="geometry" />
        </mxCell>
        <mxCell id="YHFM3lTIvCMg3ZESh84S-37" value="" style="line;html=1;strokeWidth=1;align=left;verticalAlign=middle;spacingTop=-1;spacingLeft=3;spacingRight=3;rotatable=0;labelPosition=right;points=[];portConstraint=eastwest;" vertex="1" parent="YHFM3lTIvCMg3ZESh84S-35">
          <mxGeometry y="52" width="330" height="8" as="geometry" />
        </mxCell>
        <mxCell id="YHFM3lTIvCMg3ZESh84S-57" value="+ getTotalImposto(): Double" style="text;align=left;verticalAlign=top;spacingLeft=4;spacingRight=4;overflow=hidden;rotatable=0;points=[[0,0.5],[1,0.5]];portConstraint=eastwest;rounded=0;shadow=0;html=0;" vertex="1" parent="YHFM3lTIvCMg3ZESh84S-35">
          <mxGeometry y="60" width="330" height="26" as="geometry" />
        </mxCell>
        <mxCell id="YHFM3lTIvCMg3ZESh84S-38" value="+ addImposto(imposto: IImposto): Unit" style="text;align=left;verticalAlign=top;spacingLeft=4;spacingRight=4;overflow=hidden;rotatable=0;points=[[0,0.5],[1,0.5]];portConstraint=eastwest;rounded=0;shadow=0;html=0;" vertex="1" parent="YHFM3lTIvCMg3ZESh84S-35">
          <mxGeometry y="86" width="330" height="26" as="geometry" />
        </mxCell>
        <mxCell id="YHFM3lTIvCMg3ZESh84S-58" value="+ getImposto(imposto: IImposto): Unit" style="text;align=left;verticalAlign=top;spacingLeft=4;spacingRight=4;overflow=hidden;rotatable=0;points=[[0,0.5],[1,0.5]];portConstraint=eastwest;rounded=0;shadow=0;html=0;" vertex="1" parent="YHFM3lTIvCMg3ZESh84S-35">
          <mxGeometry y="112" width="330" height="26" as="geometry" />
        </mxCell>
        <mxCell id="YHFM3lTIvCMg3ZESh84S-39" value="&lt;&lt; Interface &gt;&gt;&#xa;IImposto" style="swimlane;fontStyle=0;align=center;verticalAlign=top;childLayout=stackLayout;horizontal=1;startSize=40;horizontalStack=0;resizeParent=1;resizeLast=0;collapsible=1;marginBottom=0;rounded=0;shadow=0;strokeWidth=1;" vertex="1" parent="WIyWlLk6GJQsqaUBKTNV-1">
          <mxGeometry x="1400" y="350" width="160" height="100" as="geometry">
            <mxRectangle x="550" y="140" width="160" height="26" as="alternateBounds" />
          </mxGeometry>
        </mxCell>
        <mxCell id="YHFM3lTIvCMg3ZESh84S-43" value="" style="line;html=1;strokeWidth=1;align=left;verticalAlign=middle;spacingTop=-1;spacingLeft=3;spacingRight=3;rotatable=0;labelPosition=right;points=[];portConstraint=eastwest;" vertex="1" parent="YHFM3lTIvCMg3ZESh84S-39">
          <mxGeometry y="40" width="160" height="8" as="geometry" />
        </mxCell>
        <mxCell id="YHFM3lTIvCMg3ZESh84S-44" value="+ getImposto(): Double" style="text;align=left;verticalAlign=top;spacingLeft=4;spacingRight=4;overflow=hidden;rotatable=0;points=[[0,0.5],[1,0.5]];portConstraint=eastwest;fontStyle=0" vertex="1" parent="YHFM3lTIvCMg3ZESh84S-39">
          <mxGeometry y="48" width="160" height="26" as="geometry" />
        </mxCell>
        <mxCell id="YHFM3lTIvCMg3ZESh84S-56" style="edgeStyle=orthogonalEdgeStyle;rounded=0;orthogonalLoop=1;jettySize=auto;html=1;endArrow=none;endFill=0;dashed=1;dashPattern=8 8;" edge="1" parent="WIyWlLk6GJQsqaUBKTNV-1" source="YHFM3lTIvCMg3ZESh84S-47">
          <mxGeometry relative="1" as="geometry">
            <mxPoint x="1480" y="480" as="targetPoint" />
            <Array as="points">
              <mxPoint x="1554" y="505" />
              <mxPoint x="1520" y="505" />
            </Array>
          </mxGeometry>
        </mxCell>
        <mxCell id="YHFM3lTIvCMg3ZESh84S-47" value="Imovel" style="swimlane;fontStyle=0;align=center;verticalAlign=top;childLayout=stackLayout;horizontal=1;startSize=26;horizontalStack=0;resizeParent=1;resizeLast=0;collapsible=1;marginBottom=0;rounded=0;shadow=0;strokeWidth=1;" vertex="1" parent="WIyWlLk6GJQsqaUBKTNV-1">
          <mxGeometry x="1454" y="560" width="200" height="112" as="geometry">
            <mxRectangle x="550" y="140" width="160" height="26" as="alternateBounds" />
          </mxGeometry>
        </mxCell>
        <mxCell id="YHFM3lTIvCMg3ZESh84S-48" value="- valorM2: Double" style="text;align=left;verticalAlign=top;spacingLeft=4;spacingRight=4;overflow=hidden;rotatable=0;points=[[0,0.5],[1,0.5]];portConstraint=eastwest;rounded=0;shadow=0;html=0;fontStyle=0" vertex="1" parent="YHFM3lTIvCMg3ZESh84S-47">
          <mxGeometry y="26" width="200" height="26" as="geometry" />
        </mxCell>
        <mxCell id="YHFM3lTIvCMg3ZESh84S-51" value="- area: Double" style="text;align=left;verticalAlign=top;spacingLeft=4;spacingRight=4;overflow=hidden;rotatable=0;points=[[0,0.5],[1,0.5]];portConstraint=eastwest;rounded=0;shadow=0;html=0;fontStyle=0" vertex="1" parent="YHFM3lTIvCMg3ZESh84S-47">
          <mxGeometry y="52" width="200" height="26" as="geometry" />
        </mxCell>
        <mxCell id="YHFM3lTIvCMg3ZESh84S-52" value="- trabalhador: Trabalhador" style="text;align=left;verticalAlign=top;spacingLeft=4;spacingRight=4;overflow=hidden;rotatable=0;points=[[0,0.5],[1,0.5]];portConstraint=eastwest;rounded=0;shadow=0;html=0;fontStyle=0" vertex="1" parent="YHFM3lTIvCMg3ZESh84S-47">
          <mxGeometry y="78" width="200" height="26" as="geometry" />
        </mxCell>
        <mxCell id="YHFM3lTIvCMg3ZESh84S-49" value="" style="line;html=1;strokeWidth=1;align=left;verticalAlign=middle;spacingTop=-1;spacingLeft=3;spacingRight=3;rotatable=0;labelPosition=right;points=[];portConstraint=eastwest;" vertex="1" parent="YHFM3lTIvCMg3ZESh84S-47">
          <mxGeometry y="104" width="200" height="8" as="geometry" />
        </mxCell>
      </root>
    </mxGraphModel>
  </diagram>
</mxfile>
